<svg id="visual" viewBox="0 0 900 250" width="900" height="250" xmlns="http://www.w3.org/2000/svg" xmlns:xlink="http://www.w3.org/1999/xlink" version="1.1"><rect x="0" y="0" width="900" height="250" fill="#f5f5f5"></rect><path d="M0 185L30 183.8C60 182.7 120 180.3 180 177.7C240 175 300 172 360 156C420 140 480 111 540 91.3C600 71.7 660 61.3 720 57.8C780 54.3 840 57.7 870 59.3L900 61L900 251L870 251C840 251 780 251 720 251C660 251 600 251 540 251C480 251 420 251 360 251C300 251 240 251 180 251C120 251 60 251 30 251L0 251Z" fill="#6f3b58"></path><path d="M0 185L30 170C60 155 120 125 180 110.7C240 96.3 300 97.7 360 110.3C420 123 480 147 540 160.8C600 174.7 660 178.3 720 180C780 181.7 840 181.3 870 181.2L900 181L900 251L870 251C840 251 780 251 720 251C660 251 600 251 540 251C480 251 420 251 360 251C300 251 240 251 180 251C120 251 60 251 30 251L0 251Z" fill="#672f4d"></path><path d="M0 117L30 122.2C60 127.3 120 137.7 180 150.8C240 164 300 180 360 175.2C420 170.3 480 144.7 540 133.5C600 122.3 660 125.7 720 138.8C780 152 840 175 870 186.5L900 198L900 251L870 251C840 251 780 251 720 251C660 251 600 251 540 251C480 251 420 251 360 251C300 251 240 251 180 251C120 251 60 251 30 251L0 251Z" fill="#5e2342"></path><path d="M0 189L30 186.8C60 184.7 120 180.3 180 182.7C240 185 300 194 360 195.7C420 197.3 480 191.7 540 184.3C600 177 660 168 720 173.7C780 179.3 840 199.7 870 209.8L900 220L900 251L870 251C840 251 780 251 720 251C660 251 600 251 540 251C480 251 420 251 360 251C300 251 240 251 180 251C120 251 60 251 30 251L0 251Z" fill="#551637"></path><path d="M0 186L30 190.2C60 194.3 120 202.7 180 206.7C240 210.7 300 210.3 360 209C420 207.7 480 205.3 540 206.5C600 207.7 660 212.3 720 213C780 213.7 840 210.3 870 208.7L900 207L900 251L870 251C840 251 780 251 720 251C660 251 600 251 540 251C480 251 420 251 360 251C300 251 240 251 180 251C120 251 60 251 30 251L0 251Z" fill="#4c072c"></path></svg>